<svg xmlns="http://www.w3.org/2000/svg" viewBox="0 0 265.51 59.37"><defs><style>.cls-1{fill:#f2f2f2;}</style></defs><g id="Layer_2" data-name="Layer 2"><g id="SIGHT_-_Prototypes" data-name="SIGHT - Prototypes"><path class="cls-1" d="M12.53,0h.12a13.4,13.4,0,0,0,2,2.65A16.17,16.17,0,0,0,26.46,7.73q8.22,0,11.37-6.86h.08V1a29.23,29.23,0,0,0-1.28,6.16v.58q.7,0,2.94-5.95h.12v.08a15.47,15.47,0,0,0-.62,3.8q.16,2.07,1.41,2.07c1.59,0,3.94-2.15,7-6.45v.21a10.32,10.32,0,0,0-1.57,4.3v.49c0,.86.53,1.34,1.57,1.45q3.6,0,11.17-7h.12q-7.07,7.57-7.07,11V12c.08,1,.58,1.49,1.49,1.49h.17q2.15,0,6-2.48l.08.2A32.43,32.43,0,0,0,52,17a3.78,3.78,0,0,0-.29.87v.12c.08.2.28.29.58.29h.5A8.61,8.61,0,0,0,55,17.82c0,.16-1.27.59-3.81,1.28a17.54,17.54,0,0,1-3.64.58q-1.28,0-1.65-.66v-.13a2.07,2.07,0,0,1,1.08-1.65v-.08h-.09a6.34,6.34,0,0,1-2.64,1.16h-.42a.66.66,0,0,1-.37-.58,6.85,6.85,0,0,1,1.28-2.57,8.27,8.27,0,0,1-1.77,1.28v-.08a3.19,3.19,0,0,1-1.2.5h-.17q-.21,0-.21-.33a6.64,6.64,0,0,1,.87-1.86h-.08a8.24,8.24,0,0,1-1.65,1.77l-.13-.2c.52-.83,1.48-2.17,2.85-4h-.08A16.4,16.4,0,0,1,32.33,16H30.84q-7,0-10.37-4.38v-.13h-.09v1q0,6-4.21,6a16.72,16.72,0,0,1-3.35-.58l.2.29s-.08,0-.08.12q6.17,6.24,6.37,6.25h.08l-.21-.29V24.1h.13a10.89,10.89,0,0,0,3.3,1.37h.13v-.09a6.4,6.4,0,0,0-1.2-1.07h.12q3.53,1.15,10.59,1.16h.87A51.45,51.45,0,0,0,46.72,24l.12.17c-.19,0-.29.31-.29.78v.21q0,3.51,12.74,15.46v.12h-.13a60.47,60.47,0,0,0-7.23-2.44h-.08v.09a26.16,26.16,0,0,1,3.59,1.78h-.08A34.11,34.11,0,0,0,51.72,39q0,.33,6.86,3.43c.47.14.71.27.71.41v.08h-.13a19.92,19.92,0,0,0-8.51,2.94q-4.09,3.06-4.1,9v.71a27.43,27.43,0,0,0,.29,3.8h-.2c0-.17-.43-.69-1.29-1.57q-2.19-3.39-7.93-5.29a15.05,15.05,0,0,0-4.59-.67q-8.14,0-11.17,6.54h-.2a28.67,28.67,0,0,0,1.28-6.45c-.08,0-.13,0-.13-.09-.46.14-1.35,1.93-2.64,5.38a2,2,0,0,0-.29.87h-.17a19.78,19.78,0,0,0,.79-4c0-1.49-.5-2.24-1.49-2.24q-2.36,0-6.94,6.37V58a10.79,10.79,0,0,0,1.57-4.5c0-1.1-.53-1.66-1.57-1.66q-3.72,0-11.29,7v-.08q7.07-7.56,7.07-11.16a1.39,1.39,0,0,0-1.57-1.57H5.87q-2,0-5.79,2.35H0v-.12q7.65-5,7.65-6.74a1.29,1.29,0,0,0-.79-.29,14.12,14.12,0,0,0-2.06.29,15.9,15.9,0,0,1,4.5-1.36,10.15,10.15,0,0,1,2.44-.33H12c1.05,0,1.57.33,1.57,1a6.35,6.35,0,0,1-1,1.49h.12a5.5,5.5,0,0,1,2.81-1.2c.28.11.42.2.42.29v.29a5.13,5.13,0,0,1-1.2,2.48v.08L16.25,43h.12l.17.12a1.46,1.46,0,0,1,1.2-.5c.08,0,.18.1.29.29A7.66,7.66,0,0,1,17,45H17a9.24,9.24,0,0,1,1.86-2c0,.08.05.12.13.12a46.55,46.55,0,0,1-2.85,4v.08A16.61,16.61,0,0,1,27,43.49h1.49q7,0,10.37,4.43V48H39V46.72q0-5.67,4.21-5.67a15.93,15.93,0,0,1,3.23.5l.12-.21q-6.48-6.65-7-6.65h-.29v.49L36.46,33.9A6.13,6.13,0,0,0,37.71,35h-.09a35.07,35.07,0,0,0-9.8-1.08H25.47a51.37,51.37,0,0,0-12.82,1.37q0-.09-.12-.09a2,2,0,0,0,.29-1Q12.4,30.23,0,18.73H.21q3.89,1.48,7.31,2.44a21.12,21.12,0,0,0-4-2V19.1h.21a18.41,18.41,0,0,0,3.72,1.28h.08V20.3C4.91,18.92,2.4,17.74,0,16.74v-.2a22.25,22.25,0,0,0,8.31-2.65q4.5-3,4.51-9.67c0-.72-.1-2.1-.29-4.14ZM15.3,44a12.19,12.19,0,0,0-2.15,2.15h.08S14,45.4,15.38,44ZM46.06,13.31l-2.28,2.28h.13a9.13,9.13,0,0,0,2.23-2.28Zm9.51,26.88h.16c.14,0,.21.05.21.16h-.21A.14.14,0,0,1,55.57,40.19Z"/><path class="cls-1" d="M63.79,1.32H64q1.95,6.62,5.91,6.62,3.65,0,5.67-6.08h.2c-.14.86-.45,2.47-1,4.84v.2H75L75.78,3H76q-1.36,9.72-1.36,27.53,0,17.54,1.36,27.33h-.21L75,54.32H75v.21c0,.08.31,1.7,1,4.84h-.25c-.8-2.9-2-4.85-3.68-5.87A5.08,5.08,0,0,0,70.33,53h-.62q-3.64,0-5.58,6.2h-.21l1-4.84v-.2h-.13l-.82,4h-.21a187.46,187.46,0,0,0,1.36-25.43V28A184.35,184.35,0,0,0,63.71,2.81h.21l.82,4h.13V6.57Z"/><path class="cls-1" d="M92.9.17a12.89,12.89,0,0,0,2,2.64A16.07,16.07,0,0,0,106.67,7.9Q114.89,7.9,118,1h.09v.13a29.6,29.6,0,0,0-1.24,6.16V7.9c.47,0,1.44-2,2.93-6h.08V2a15.54,15.54,0,0,0-.7,3.8v.41c0,1.11.33,1.66,1,1.66,1.3,0,3.28-2,6-5.87v.2a49.21,49.21,0,0,0-2.94,5.54h.21s1.46-2,4.22-6.16v.21a9.76,9.76,0,0,0-1.49,4.09v.5c0,.88.52,1.38,1.57,1.49q3.6,0,11.12-7h.12q-7,7.49-7,11.2a1.37,1.37,0,0,0,1.53,1.57,13.24,13.24,0,0,0,4.63-1.44q-6.17,4.26-6.16,5.83.08.33.57.33h.5a8.58,8.58,0,0,0,2.15-.42c0,.17-1.27.6-3.8,1.28a17,17,0,0,1-3.64.58c-.88,0-1.43-.23-1.66-.7V19a2.07,2.07,0,0,1,1.08-1.66v-.08H127a6.63,6.63,0,0,1-2.65,1.16H124a.63.63,0,0,1-.37-.58c.11-.85,1-2.33,2.72-4.42h-.08a18.09,18.09,0,0,1-2.93,2.64h-.13a.6.6,0,0,1,.42-.66l-.13-.21v-.08q.21,0,1-1h-.08c-1.3,1.3-2.18,1.94-2.64,1.94h-.09a.18.18,0,0,1-.2-.2,5.19,5.19,0,0,1,.78-1.66c-.08,0-.12,0-.12-.08.16,0,.37-.26.62-.79h-.13q-2.56,2.73-4.09,2.73h-.21c-.57,0-.89-.38-1-1.16v-.41a7.81,7.81,0,0,1,.17-1.24h-.08l.29-.7v-.08h-.09a9.14,9.14,0,0,1-7.52,3.59H109a9.93,9.93,0,0,1-7.52-3.51v.08a20.45,20.45,0,0,1,1.44,3.14,24.31,24.31,0,0,1-2.15-4.21h-.08v1.07c0,2.65-.65,4.38-1.94,5.21a3.61,3.61,0,0,1-2,.58H96a9.76,9.76,0,0,1-2.81-.5h-.08V18a34.29,34.29,0,0,1,3.67,2.64H96.7l-2.93-1.94v.08q3.42,4,3.43,10.58v.87Q97.2,37,93.68,41h.09a4.87,4.87,0,0,1,1.57-1A10.44,10.44,0,0,1,93,41.67v.13h.13a10.57,10.57,0,0,1,3.59-.71q3.31,0,3.31,4.31v1c0,.33,0,.88-.08,1.65q3.46-4.5,11.53-4.5h.21c4.79,0,8.69,1.23,11.7,3.72h.08a11,11,0,0,1-2-3.52.67.67,0,0,1,.37-.2,13.61,13.61,0,0,1,3.06,2.35v-.08a12.49,12.49,0,0,1-1.78-2.15s.08,0,.08-.12A24,24,0,0,1,127,46.88v-.12c-2.29-2.89-3.43-5.6-3.43-8.1a3.45,3.45,0,0,1,2.23-3.52,10.18,10.18,0,0,1,1.07-.08v-.13a44.83,44.83,0,0,0-8.31-1q-3.39,0-3.39,1.08v.08a3,3,0,0,0-1.07-.58l-.13.21a8.75,8.75,0,0,0,1.2,2.81,7,7,0,0,0-5.08-1.73h-.21a7.81,7.81,0,0,0-5.29,1.65v-.13a18.59,18.59,0,0,0,1.07-6.61V29A19.12,19.12,0,0,0,104.52,22a7.35,7.35,0,0,0,5.37,1.86,7.83,7.83,0,0,0,5.29-1.74v.08A6.1,6.1,0,0,0,114,25l.21.12h.21l.78-.61h.09l-.09.49c.44.47,1.38.7,2.81.7h1.49a33,33,0,0,0,7.82-1.07v.16c-.86.28-1.29.52-1.29.71a1.15,1.15,0,0,0,.58.2h1.49a74.55,74.55,0,0,0,11-1.36v.17q-7.23,2-7.23,10.37,0,7.53,6.9,13.11h-.16q-4.89-3.06-6.58-3.06a.2.2,0,0,0-.16.21c.11.93,2,3,5.74,6.07h-.08q-3.77-2.57-5.21-2.56c-.28.14-.43.27-.45.41v.29q.12,2.11,6.24,8.77h-.08q-6.95-6.24-10.38-6.25h-.08c-1,.09-1.49.57-1.49,1.45v.33a12.54,12.54,0,0,0,1.49,4.47c-3-4.16-5.32-6.25-6.87-6.25h-.16c-.86,0-1.28.75-1.28,2.24a14.92,14.92,0,0,0,.66,3.84h-.17c-1.27-3.61-2.22-5.63-2.85-6.08h-.08v.5a28.34,28.34,0,0,0,1.24,6.16h-.17a9.61,9.61,0,0,0-4.42-5,13.68,13.68,0,0,0-6.74-1.66,15.8,15.8,0,0,0-13.27,6.83c-.19,0-.32.16-.37.49-.17.14-.28.21-.34.21v-.08a35,35,0,0,0,.34-4.22q0-8.4-8-11a27.13,27.13,0,0,0-4.79-1V43q7.6-4.23,7.61-12.49,0-7.56-6.74-11.66h.2c.77.33,2.83,1.09,6.16,2.27h.09V21q-7-2.94-7.32-3.22v-.09q1.86,0,6.82-2.35Q93,11.91,93,4.47V3.76A16.17,16.17,0,0,0,92.69.25ZM96,39.52a.58.58,0,0,1-.58.42A.64.64,0,0,1,96,39.52Zm41.71,11.75h.13c.14,0,.21.09.21.2h-.13A.18.18,0,0,1,137.71,51.27Z"/><path class="cls-1" d="M198.45,0V.08c-2.73,3.28-4.2,5.4-4.43,6.37v.08q0,.21.21.21,1.7-.45,8.19-6.74h.08q-6.74,7.44-6.74,11.08a1.41,1.41,0,0,0,.79,1.41,12.58,12.58,0,0,1,1.9-1.49h.12a17,17,0,0,0-1.4,1.69h.2a12.58,12.58,0,0,0,4.51-1.4,54.05,54.05,0,0,1-6.12,3.51,33.48,33.48,0,0,0-3,14.43v.41q0,8.85,3.31,14.6a44.45,44.45,0,0,1,5.75,3.22h-.21a9.22,9.22,0,0,0-4-1.28h-.41c.44.55,1,1.16,1.61,1.82h-.12l-2.2-1.65a1.48,1.48,0,0,0-.7,1.32v.12q0,3.56,6.45,10.67v.08q-6.83-6.45-8.06-6.45H194v.13q0,1.2,4.14,6.16v.08q-6.37-6.36-9.68-6.37h-.2c-1.05,0-1.66.65-1.82,1.95v.57a14.08,14.08,0,0,0,1.12,4.26q-3.65-6.78-5.05-6.78c-.19,0-.29.31-.29.91a10.58,10.58,0,0,0,.29,2.24h-.21A38.28,38.28,0,0,1,181,47.79c0-1,.2-1.54.58-1.73h.13c.35,0,.78.34,1.28,1V47a6.88,6.88,0,0,1-.87-2.94c0-.16.16-.33.5-.49.71,0,2.12,1.14,4.21,3.43v-.09a16.38,16.38,0,0,1-2.73-8.39c0-2.07.71-3.27,2.11-3.6a.74.74,0,0,1,.33-.12v-.08a88.4,88.4,0,0,0-27,0v.08c1.63.3,2.44,1.45,2.44,3.43v.5a16,16,0,0,1-2.6,8.06v.12q2.94-3.23,4.09-3.34c.36.08.54.35.54.82A12.9,12.9,0,0,1,163.1,47c.58-.61,1-.91,1.28-.91h.13c.27,0,.44.47.49,1.4V48a34.9,34.9,0,0,1-1.2,7.15h-.2a14.71,14.71,0,0,0,.29-2.31q-.13-.75-.42-.75h-.16a15.4,15.4,0,0,0-3.56,4.67c-.5,1.13-.83,1.7-1,1.7v-.21a9.11,9.11,0,0,0,.91-3.72v-.62c-.17-1.21-.77-1.82-1.82-1.82q-3.72,0-10.17,6.78v-.12q4.42-5.3,4.42-6.53v-.13H152q-2.19.63-8.89,7.28v-.08q7.27-7.82,7.28-11.5c-.17-1-.44-1.44-.83-1.44a11.76,11.76,0,0,1-1.9,1.53h-.13a14.42,14.42,0,0,0,1.41-1.7h-.58a12.65,12.65,0,0,0-4.26,1.41c1.08-.75,3.17-2,6.29-3.64a31.19,31.19,0,0,0,3-13.81V28.53a29,29,0,0,0-3.23-13.89,36.55,36.55,0,0,1-5.66-3.15h.2a9.33,9.33,0,0,0,4.22,1.2,12.7,12.7,0,0,0-1.49-1.82h.08c.42.28,1.09.79,2,1.53h.08a1.46,1.46,0,0,0,.75-1.4q0-3.39-6.45-10.59V.29q6.85,6.45,8.06,6.45l.08-.21V6.45q-.21-1.25-4.21-6.16V.21q6.45,6.53,9.88,6.53c1.27,0,1.9-.7,1.9-2.11V4.05a13.19,13.19,0,0,0-1-4,43.42,43.42,0,0,0,4,6.16,2.09,2.09,0,0,0,1,.5,1.46,1.46,0,0,0,.29-.91,16.31,16.31,0,0,0-.21-1.7h.21A30.81,30.81,0,0,1,165,10.87v.71c-.08.82-.32,1.24-.7,1.24s-.7-.35-1.12-1h-.08v.13a7.73,7.73,0,0,1,.91,2.81c-.14.3-.28.47-.41.49h-.21q-1,0-4.14-3.43v.13A16.14,16.14,0,0,1,162,20.34Q162,24,159.25,24v.12a69.19,69.19,0,0,0,12,1h3.64a67.71,67.71,0,0,0,12-1V24q-2.73,0-2.73-3.72a16.81,16.81,0,0,1,2.73-8.35h-.08q-2.94,3.3-4,3.3h-.29c-.19,0-.29-.26-.29-.7a10.6,10.6,0,0,1,.79-2.6c-.56.6-1,.91-1.2.91s-.62-.58-.71-1.74a41.58,41.58,0,0,1,1.28-7.57h.21a12.22,12.22,0,0,0-.29,2.32V6a.68.68,0,0,0,.42.7q.94,0,3.8-4.71a5.32,5.32,0,0,1,1-1.82v.2a9.31,9.31,0,0,0-1,4v.13c0,1.46.65,2.19,1.94,2.19Q191.91,6.74,198.45,0Zm-51.1,48h.12c0,.11-.07.16-.2.16h-.09A.15.15,0,0,1,147.35,48Zm51.1,10.75q.17,0,.33.33v.08c-.11,0-.22-.09-.33-.29Zm.41-48.08H199a.18.18,0,0,1-.21.2h-.12C198.68,10.74,198.75,10.67,198.86,10.67Z"/><path class="cls-1" d="M265.43.45h.08Q258.27,8.19,258.27,12a1.43,1.43,0,0,0,1.62,1.61,13,13,0,0,0,4.71-1.49q-6.33,4.35-6.33,6a.59.59,0,0,0,.62.33h.5a8.93,8.93,0,0,0,2.19-.41c0,.16-1.3.59-3.89,1.28a16.43,16.43,0,0,1-3.72.62c-.91,0-1.47-.24-1.69-.71v-.08a2.22,2.22,0,0,1,1.07-1.74v-.08h-.08a6.38,6.38,0,0,1-2.73,1.2h-.37a.65.65,0,0,1-.41-.62c0-.83,1.19-2.63,3.59-5.41h-.08q-4.5,3.63-7.94,3.63h-.91a3,3,0,0,1-3.31-2.81V13H241a117.88,117.88,0,0,0-1.11,17.2q.2,10,.7,14.93c.33-.5.59-.76.78-.79q1.36.33,3.15,3.23v.16c-.42-.52-.79-.79-1.12-.79s-.33.34-.41,1v1a40.18,40.18,0,0,0,1.9,9.8h-.21q-2-5.91-3.39-5.91c-.22,0-.38.4-.49,1.2v1.4a21.51,21.51,0,0,0,.41,3.93H241c-1.18-4.36-3-6.53-5.33-6.53s-4,2.11-5.21,6.32h-.21c.19-1.51.33-2.92.42-4.21-.11-1.41-.32-2.11-.62-2.11q-1.46,0-3.52,6.12h-.2a40.37,40.37,0,0,0,2-10.71c-.08-.88-.22-1.33-.41-1.33h-.29l-.83.71v-.08q1.86-3.06,3.14-3.23a1,1,0,0,1,.71,1h.08q.71-8,.7-15a137,137,0,0,0-1-17.15h-.12c0,1.7-1.13,2.71-3.39,3h-.91q-3.31,0-7.94-3.51h-.08c2.34,2.59,3.51,4.36,3.51,5.29v.33c0,.09-.11.18-.33.29h-.37a6.1,6.1,0,0,1-2.73-1.2h-.08a3,3,0,0,1,1.07,1.82c0,.41-.56.68-1.69.79a28.61,28.61,0,0,1-7.53-1.7V18a7.05,7.05,0,0,0,2.11.41h.5a.58.58,0,0,0,.62-.41q-.3-1.74-6.54-6h.21a9.92,9.92,0,0,0,4.71,1.61c1,0,1.5-.56,1.62-1.69q0-3.44-6.54-10.67V1.16h.09q7.23,6.53,10.75,6.53c1,0,1.53-.61,1.61-1.82a12,12,0,0,0-1.7-4.8V1q5.13,6.74,9.22,6.74,2.44,0,3.52-3a20.4,20.4,0,0,0,.2-2.4Q230.16,1,230.16,1h.21a10.45,10.45,0,0,0,3.14,5.91,4.56,4.56,0,0,0,2.19.83q3.63,0,5.41-7h.21l-.21,1.9c0,2.68.92,4.32,2.73,4.92a4.28,4.28,0,0,0,1,.21q4,0,9.13-6.62v.17a10.87,10.87,0,0,0-1.61,4.42v.5c0,.91.54,1.42,1.61,1.53Q257.66,7.69,265.43.45Z"/></g></g></svg>