<?xml version="1.0" standalone="no"?>
<!DOCTYPE svg PUBLIC "-//W3C//DTD SVG 20010904//EN"
 "http://www.w3.org/TR/2001/REC-SVG-20010904/DTD/svg10.dtd">
<svg version="1.0" xmlns="http://www.w3.org/2000/svg"
 width="520.000000pt" height="520.000000pt" viewBox="0 0 520.000000 520.000000"
 preserveAspectRatio="xMidYMid meet">
<metadata>
Created by potrace 1.14, written by Peter Selinger 2001-2017
</metadata>
<g transform="translate(0.000000,520.000000) scale(0.100000,-0.100000)"
fill="#000000" stroke="none">
<path d="M1647 4090 c5 -157 4 -184 -16 -260 -30 -122 -73 -202 -147 -276 -95
-95 -261 -167 -471 -204 -40 -7 -73 -17 -73 -22 0 -5 17 -16 38 -24 68 -29
352 -167 348 -171 -2 -2 -42 10 -89 28 -118 42 -129 33 -17 -15 49 -21 92 -42
95 -47 7 -10 -63 10 -226 67 -69 24 -131 44 -137 44 -6 0 75 -84 180 -187 368
-363 533 -586 515 -700 -6 -34 -5 -35 21 -30 326 59 416 67 748 67 301 0 474
-16 619 -56 15 -4 13 1 -10 20 l-30 26 68 -30 c80 -35 77 -34 77 -15 0 13 4
14 23 4 24 -13 367 -348 367 -359 0 -3 -33 -1 -72 6 -141 25 -201 14 -264 -50
-49 -48 -69 -106 -80 -225 l-7 -81 -61 58 c-74 69 -154 113 -261 144 -73 21
-100 23 -295 23 -193 0 -223 -2 -299 -23 -98 -27 -204 -74 -277 -124 l-50 -34
68 96 c77 110 88 143 27 85 l-41 -40 17 33 c38 77 -28 83 -123 13 l-33 -24 26
49 c51 96 9 132 -93 80 l-50 -25 21 39 c21 38 21 39 3 59 -16 18 -31 21 -100
21 -83 0 -273 -40 -346 -73 -35 -16 -35 -16 37 -10 60 5 74 3 79 -10 16 -42
-73 -132 -259 -265 -62 -43 -122 -85 -134 -93 -13 -8 -23 -17 -23 -20 0 -4 54
20 119 53 102 52 129 61 188 65 90 7 115 -10 115 -80 0 -112 -85 -264 -266
-475 -117 -138 -135 -160 -106 -137 14 11 50 42 80 69 81 73 256 201 322 236
76 41 163 70 207 70 103 0 115 -93 35 -269 -19 -41 -33 -76 -30 -78 2 -2 21
21 44 50 205 272 370 368 412 241 14 -42 8 -125 -16 -222 -9 -35 -14 -65 -12
-68 3 -2 24 44 48 104 54 134 93 214 115 232 15 13 16 10 10 -36 -6 -40 -25
-130 -62 -291 -10 -41 11 -24 42 34 38 73 145 179 220 220 87 46 194 73 317
80 136 8 233 -8 364 -57 184 -68 286 -143 409 -297 28 -35 53 -63 58 -63 4 0
4 19 0 43 -15 82 -9 327 10 397 43 162 139 284 283 358 97 50 231 95 332 112
39 6 72 15 72 20 0 4 -17 15 -39 23 -64 26 -361 170 -358 173 2 2 49 -12 105
-30 56 -19 102 -32 102 -28 0 4 -41 25 -91 47 -50 22 -87 41 -81 43 5 1 87
-24 182 -57 96 -33 176 -59 177 -57 2 2 -97 104 -220 227 -236 238 -384 412
-441 520 -40 74 -55 141 -37 163 20 24 -1 25 -84 5 -154 -36 -305 -50 -590
-56 -292 -6 -478 4 -610 33 -38 8 -83 18 -100 21 l-29 6 34 -31 c46 -41 26
-40 -67 3 -42 19 -83 35 -92 35 -19 0 -348 326 -339 335 3 4 32 2 64 -4 158
-30 254 2 304 99 24 47 40 128 40 202 l0 61 64 -62 c76 -72 194 -133 301 -156
106 -22 285 -29 409 -16 158 18 300 66 411 141 22 14 46 30 52 34 7 4 -19 -38
-58 -94 -75 -105 -84 -138 -23 -79 26 24 33 28 25 12 -15 -30 -14 -73 3 -73
17 0 93 35 124 57 23 16 23 15 -5 -41 -21 -44 -25 -60 -17 -74 17 -26 49 -26
109 2 54 25 55 25 40 3 -21 -30 -19 -74 4 -87 50 -26 211 -6 395 51 103 32
124 49 36 30 -147 -32 -157 16 -26 132 93 84 202 167 276 212 33 20 60 41 60
47 0 6 -9 4 -22 -4 -63 -41 -160 -89 -215 -107 -307 -103 -233 212 145 620 30
33 53 62 50 64 -2 2 -40 -27 -84 -66 -165 -146 -323 -255 -431 -295 -80 -30
-132 -31 -168 -2 -26 20 -27 25 -23 89 4 50 15 88 43 148 21 45 36 83 34 85
-2 3 -37 -38 -78 -90 -84 -108 -184 -205 -241 -234 -111 -57 -165 15 -135 181
8 46 18 94 21 107 4 12 2 22 -2 22 -5 0 -22 -35 -38 -78 -35 -93 -105 -240
-119 -249 -17 -11 0 123 33 251 17 66 29 121 27 123 -2 2 -22 -27 -43 -64 -56
-98 -154 -192 -245 -236 -120 -59 -183 -72 -354 -72 -173 1 -251 18 -390 86
-132 64 -286 199 -367 319 -16 24 -16 16 -11 -150z"/>
</g>
</svg>
